<?xml version="1.0" standalone="no"?>
<!DOCTYPE svg PUBLIC "-//W3C//DTD SVG 20010904//EN"
 "http://www.w3.org/TR/2001/REC-SVG-20010904/DTD/svg10.dtd">
<svg version="1.0" xmlns="http://www.w3.org/2000/svg"
 width="100.000000pt" height="100.000000pt" viewBox="0 0 100.000000 100.000000"
 preserveAspectRatio="xMidYMid meet">

<g transform="translate(0.000000,100.000000) scale(0.100000,-0.100000)"
fill="#000000" stroke="none">
<path d="M185 921 c-16 -10 -52 -42 -79 -70 -47 -51 -48 -54 -42 -99 24 -187
336 -539 577 -652 36 -16 85 -33 111 -36 46 -6 48 -6 103 47 65 61 89 101 81
133 -6 25 -194 156 -223 156 -10 0 -39 -11 -65 -25 -26 -14 -52 -25 -58 -25
-16 0 -228 209 -235 231 -3 10 6 40 20 68 14 28 25 57 25 66 0 18 -114 193
-138 213 -22 17 -42 15 -77 -7z"/>
<path d="M578 873 c-40 -37 -73 -70 -73 -73 0 -9 146 -140 155 -140 29 0 18
28 -28 72 l-51 48 90 0 c163 0 189 -28 189 -200 0 -95 1 -100 21 -100 20 0 21
4 17 119 -3 102 -6 124 -24 147 -44 60 -67 69 -183 72 l-108 4 50 47 c30 28
47 53 43 59 -12 20 -22 14 -98 -55z"/>
</g>
</svg>
