<?xml version="1.0" standalone="no"?>
<!DOCTYPE svg PUBLIC "-//W3C//DTD SVG 20010904//EN"
 "http://www.w3.org/TR/2001/REC-SVG-20010904/DTD/svg10.dtd">
<svg version="1.0" xmlns="http://www.w3.org/2000/svg"
 width="64.000000pt" height="64.000000pt" viewBox="0 0 64.000000 64.000000"
 preserveAspectRatio="xMidYMid meet">

<g transform="translate(0.000000,64.000000) scale(0.100000,-0.100000)"
fill="#000000" stroke="none">
<path d="M72 529 c-24 -9 -23 -10 27 -67 165 -187 175 -197 221 -197 46 0 56
10 221 197 l51 58 -27 10 c-33 13 -461 12 -493 -1z"/>
<path d="M26 485 c-10 -26 -7 -318 4 -335 11 -17 0 -26 104 88 36 41 66 77 66
82 0 9 -147 174 -159 178 -5 2 -11 -4 -15 -13z"/>
<path d="M530 428 c-92 -101 -94 -104 -78 -126 7 -10 44 -52 81 -93 54 -60 70
-71 77 -59 11 16 14 308 4 334 -3 9 -9 16 -13 16 -3 0 -35 -32 -71 -72z"/>
<path d="M133 216 c-55 -61 -79 -94 -72 -101 14 -14 504 -14 518 0 7 7 -17 40
-72 101 l-82 91 -33 -28 c-45 -40 -99 -40 -144 0 l-33 28 -82 -91z"/>
</g>
</svg>
