<?xml version="1.0" standalone="no"?>
<!DOCTYPE svg PUBLIC "-//W3C//DTD SVG 20010904//EN"
 "http://www.w3.org/TR/2001/REC-SVG-20010904/DTD/svg10.dtd">
<svg version="1.0" xmlns="http://www.w3.org/2000/svg"
 width="64.000000pt" height="64.000000pt" viewBox="0 0 64.000000 64.000000"
 preserveAspectRatio="xMidYMid meet">

<g transform="translate(0.000000,64.000000) scale(0.100000,-0.100000)"
fill="#000000" stroke="none">
<path d="M219 552 c-69 -36 -110 -99 -117 -177 -6 -76 26 -137 133 -250 l85
-90 85 90 c107 113 139 174 133 250 -7 78 -48 141 -117 177 -71 37 -131 37
-202 0z m135 -78 c34 -33 12 -94 -34 -94 -31 0 -50 22 -50 59 0 25 26 51 50
51 10 0 26 -7 34 -16z m63 -157 c9 -9 13 -23 10 -31 -10 -25 -69 -56 -107 -56
-38 0 -97 31 -106 55 -8 19 11 42 39 49 43 9 149 -2 164 -17z"/>
</g>
</svg>
