<?xml version="1.0" standalone="no"?>
<!DOCTYPE svg PUBLIC "-//W3C//DTD SVG 20010904//EN"
 "http://www.w3.org/TR/2001/REC-SVG-20010904/DTD/svg10.dtd">
<svg version="1.0" xmlns="http://www.w3.org/2000/svg"
 width="225.000000pt" height="118.000000pt" viewBox="0 0 225.000000 118.000000"
 preserveAspectRatio="xMidYMid meet">

<g transform="translate(0.000000,118.000000) scale(0.100000,-0.100000)"
fill="#000000" stroke="none">
<path d="M100 760 l0 -350 1010 0 1010 0 0 350 0 350 -1010 0 -1010 0 0 -350z
m1940 0 l0 -280 -932 2 -933 3 -3 265 c-1 146 0 270 3 277 3 10 194 13 935 13
l930 0 0 -280z"/>
<path d="M360 949 c-93 -37 -102 -134 -17 -183 23 -13 59 -29 80 -36 64 -20
86 -60 51 -94 -31 -32 -124 -9 -124 30 0 10 -12 14 -41 14 -37 0 -40 -2 -33
-22 17 -57 70 -88 149 -88 93 0 135 33 135 105 0 48 -37 85 -115 114 -72 27
-85 37 -85 65 0 32 19 46 61 46 28 0 43 -6 57 -25 14 -17 30 -25 51 -25 41 0
42 28 2 68 -41 40 -114 53 -171 31z"/>
<path d="M1745 946 c-60 -27 -84 -76 -62 -128 14 -34 44 -53 150 -97 41 -18
47 -23 47 -50 0 -34 -22 -51 -67 -51 -33 0 -73 25 -73 46 0 10 -12 14 -41 14
-37 0 -40 -2 -33 -22 19 -63 74 -91 167 -86 61 3 72 7 93 31 17 20 24 40 24
68 0 53 -35 88 -115 118 -72 27 -85 37 -85 65 0 32 19 46 61 46 35 0 69 -20
69 -41 0 -5 16 -9 35 -9 29 0 35 4 35 21 0 12 -13 33 -30 49 -43 40 -117 52
-175 26z"/>
<path d="M730 823 c0 -202 22 -243 130 -251 69 -5 111 9 140 46 18 22 20 41
20 178 l0 154 -35 0 -35 0 0 -145 c0 -132 -2 -147 -20 -165 -25 -25 -71 -26
-101 -1 -23 19 -24 24 -24 165 l0 146 -37 0 -38 0 0 -127z"/>
<path d="M1210 761 l0 -191 78 0 c102 0 156 26 189 89 45 86 21 214 -50 265
-23 17 -47 22 -123 24 l-94 4 0 -191z m155 125 c18 -8 38 -23 44 -34 18 -34
23 -96 12 -140 -16 -58 -45 -82 -98 -82 l-43 0 0 128 c0 71 3 132 7 135 10 11
41 8 78 -7z"/>
<path d="M146 241 c-26 -29 -12 -59 39 -81 53 -23 64 -39 40 -57 -25 -17 -31
-17 -55 7 -24 24 -40 26 -40 6 0 -20 39 -46 70 -46 33 0 70 26 70 50 0 20 -44
60 -66 60 -7 0 -20 7 -29 16 -12 12 -13 19 -4 30 15 18 48 18 55 -1 6 -16 44
-21 44 -7 0 5 -8 16 -18 25 -26 23 -85 22 -106 -2z"/>
<path d="M300 164 c0 -84 2 -95 17 -92 14 2 16 13 14 61 -1 33 2 57 8 57 5 0
26 -27 47 -60 53 -86 64 -81 64 35 0 78 -3 95 -15 95 -12 0 -15 -13 -15 -55 0
-30 -3 -55 -8 -55 -4 0 -22 25 -40 55 -22 37 -40 55 -53 55 -17 0 -19 -8 -19
-96z"/>
<path d="M500 165 l0 -95 60 0 c47 0 60 3 60 15 0 11 -12 15 -45 15 -43 0 -45
1 -45 30 0 28 2 30 40 30 22 0 40 5 40 10 0 6 -18 10 -40 10 -38 0 -40 2 -40
30 0 29 2 30 45 30 25 0 45 5 45 10 0 6 -27 10 -60 10 l-60 0 0 -95z"/>
<path d="M699 233 c-32 -84 -59 -156 -59 -159 0 -2 7 -4 16 -4 9 0 18 9 21 20
8 29 88 29 96 0 3 -11 12 -20 21 -20 9 0 16 1 16 3 0 1 -15 42 -34 92 -37 97
-58 116 -77 68z m51 -80 c0 -7 -11 -13 -25 -13 -28 0 -30 6 -14 47 l11 28 13
-25 c8 -14 14 -31 15 -37z"/>
<path d="M840 165 c0 -78 3 -95 15 -95 10 0 15 10 15 29 0 16 6 34 14 41 12 9
19 4 41 -29 14 -23 32 -41 40 -41 21 0 19 7 -16 61 l-31 49 31 37 c27 32 29
39 14 42 -10 2 -28 -11 -46 -33 -36 -45 -47 -45 -47 -1 0 24 -5 35 -15 35 -12
0 -15 -17 -15 -95z"/>
<path d="M1010 165 l0 -95 66 0 c48 0 65 3 62 13 -3 6 -23 13 -46 15 -39 3
-42 5 -42 33 0 27 3 29 35 29 19 0 35 5 35 10 0 6 -16 10 -35 10 -32 0 -35 2
-35 30 0 29 2 30 45 30 25 0 45 5 45 10 0 6 -28 10 -65 10 l-65 0 0 -95z"/>
<path d="M1170 165 c0 -76 3 -95 14 -95 10 0 16 13 18 37 4 50 22 52 54 4 36
-55 62 -56 34 -2 -17 34 -18 41 -5 51 8 7 15 27 15 46 0 41 -21 54 -84 54
l-46 0 0 -95z m88 66 c8 -4 12 -19 10 -32 -2 -19 -10 -25 -35 -27 -32 -3 -33
-2 -33 32 0 31 3 36 23 36 12 0 28 -4 35 -9z"/>
<path d="M1430 240 c-31 -31 -28 -113 5 -145 33 -34 77 -33 105 2 27 34 10 42
-26 14 -24 -19 -30 -20 -48 -8 -28 19 -35 97 -11 121 22 22 52 20 65 -4 11
-21 40 -28 40 -10 0 23 -41 50 -75 50 -22 0 -43 -8 -55 -20z"/>
<path d="M1639 233 c-32 -84 -59 -156 -59 -159 0 -2 7 -4 16 -4 9 0 18 9 21
20 8 29 88 29 96 0 3 -11 12 -20 21 -20 9 0 16 1 16 3 0 1 -15 42 -34 92 -37
97 -58 116 -77 68z m29 -91 c-28 -5 -30 0 -16 39 l11 33 12 -34 c11 -32 10
-35 -7 -38z"/>
<path d="M1780 165 c0 -76 3 -95 14 -95 10 0 16 13 18 37 4 50 22 52 54 4 15
-23 33 -41 40 -41 18 0 18 3 -6 42 -18 30 -18 34 -3 50 21 23 20 68 -3 85 -10
7 -39 13 -66 13 l-48 0 0 -95z m88 66 c8 -4 12 -19 10 -32 -2 -19 -10 -25 -35
-27 -32 -3 -33 -2 -33 32 0 31 3 36 23 36 12 0 28 -4 35 -9z"/>
<path d="M1957 168 l1 -93 61 -3 c50 -2 61 0 61 13 0 11 -11 15 -45 15 -43 0
-45 1 -45 30 0 28 3 30 35 30 19 0 35 5 35 10 0 6 -16 10 -35 10 -32 0 -35 2
-35 30 0 29 2 30 45 30 25 0 45 5 45 10 0 6 -28 10 -62 10 l-63 0 2 -92z"/>
</g>
</svg>
